<?xml version="1.0" encoding="UTF-8"?>
<svg xmlns="http://www.w3.org/2000/svg" xmlns:xlink="http://www.w3.org/1999/xlink" width="194pt" height="194pt" viewBox="0 0 194 194" version="1.1">
<g id="surface1">
<path style=" stroke:none;fill-rule:evenodd;fill:rgb(100%,100%,100%);fill-opacity:1;" d="M 0.257813 0.675781 L 193.015625 0.675781 L 193.015625 193.433594 L 0.257813 193.433594 L 0.257813 0.675781 "/>
<path style=" stroke:none;fill-rule:evenodd;fill:rgb(13.699341%,12.199402%,12.5%);fill-opacity:1;" d="M 96.605469 54.550781 C 98.019531 54.550781 99.4375 54.550781 100.855469 54.617188 C 150.441406 55.628906 190.179688 74.320313 190.179688 97.054688 C 190.179688 119.792969 150.441406 138.480469 100.855469 139.492188 C 99.4375 139.558594 98.019531 139.558594 96.605469 139.558594 C 45.125 139.558594 3.09375 120.464844 3.09375 97.054688 C 3.09375 73.644531 45.125 54.550781 96.605469 54.550781 Z M 100.855469 94.289063 L 82.503906 99.144531 C 76.027344 100.765625 70.359375 102.925781 64.894531 101.035156 C 57.472656 97.796875 57.609375 89.363281 63.140625 80.390625 C 53.355469 88.554688 35.75 114.664063 59.566406 117.292969 C 62.601563 117.699219 67.996094 116.621094 73.867188 114.125 L 100.855469 102.925781 L 154.085938 80.929688 L 107.464844 92.535156 L 100.855469 94.289063 "/>
</g>
</svg>
